<svg width="57" height="56" viewBox="0 0 57 56" fill="none" xmlns="http://www.w3.org/2000/svg">
<path d="M47.9397 8.16561C42.6743 2.89996 35.6733 0 28.2268 0C20.7808 0 13.7801 2.89996 8.51449 8.16561C3.24883 13.4313 0.348877 20.4319 0.348877 27.8779C0.348877 35.3252 3.24883 42.3263 8.51449 47.5915C13.7798 52.8564 20.7804 55.7558 28.2268 55.7558C35.6738 55.7558 42.6746 52.8564 47.9396 47.5915C53.205 42.3264 56.1047 35.3253 56.1047 27.8779C56.1047 20.4317 53.205 13.4311 47.9397 8.16561ZM46.7077 46.3594C41.7716 51.2952 35.2083 54.0134 28.2268 54.0134C21.2458 54.0134 14.6827 51.2952 9.74645 46.3594C4.80989 41.4233 2.09125 34.8597 2.09125 27.8779C2.09125 20.8973 4.80989 14.3343 9.74645 9.39769C14.6831 4.46101 21.2462 1.74237 28.2268 1.74237C35.208 1.74237 41.7713 4.46101 46.7077 9.39758C51.6439 14.334 54.3623 20.8971 54.3623 27.8779C54.3623 34.8599 51.6439 41.4234 46.7077 46.3594Z" fill="white"/>
<path d="M47.1792 12.52C46.876 12.1463 46.3275 12.0892 45.9538 12.3924C45.5802 12.6955 45.523 13.2442 45.8261 13.6177C49.0836 17.6328 50.8776 22.6972 50.8776 27.878C50.8776 33.9291 48.5216 39.6175 44.2436 43.8953C39.9657 48.173 34.2775 50.5288 28.2268 50.5288C22.6447 50.5288 17.282 48.4808 13.1267 44.762C12.7682 44.4412 12.2174 44.4717 11.8966 44.8302C11.5757 45.1887 11.6062 45.7395 11.9647 46.0603C16.44 50.0654 22.2153 52.2712 28.2268 52.2712C34.7429 52.2712 40.8687 49.7342 45.4756 45.1273C50.0828 40.5204 52.62 34.3945 52.62 27.878C52.62 22.2987 50.6877 16.8446 47.1792 12.52Z" fill="white"/>
<path d="M5.57611 27.8779C5.57611 15.3883 15.7373 5.22711 28.2269 5.22711C33.809 5.22711 39.1716 7.27526 43.3269 10.9942C43.6855 11.3153 44.2363 11.2846 44.557 10.9262C44.878 10.5677 44.8475 10.0169 44.489 9.69607C40.0137 5.69058 34.2384 3.48474 28.2269 3.48474C21.7116 3.48474 15.5861 6.02217 10.9787 10.6297C6.37117 15.237 3.83374 21.3626 3.83374 27.8779C3.83374 33.4578 5.76603 38.9123 9.27461 43.2367C9.44678 43.4489 9.69812 43.559 9.95163 43.559C10.1445 43.559 10.3385 43.4953 10.5 43.3643C10.8737 43.0611 10.9308 42.5125 10.6277 42.1389C7.3701 38.1239 5.57611 33.0593 5.57611 27.8779Z" fill="white"/>
<path d="M18.6438 13.9014C16.2419 13.9014 14.2878 15.8554 14.2878 18.2573V37.4234C14.2878 39.8252 16.2419 41.7793 18.6438 41.7793H37.8098C40.2117 41.7793 42.1657 39.8252 42.1657 37.4234V18.2573C42.1657 15.8554 40.2117 13.9014 37.8098 13.9014H18.6438ZM37.8098 40.0369H18.6438C17.2026 40.0369 16.0302 38.8645 16.0302 37.4234V24.3556H21.2059C20.6823 25.4061 20.3861 26.589 20.3861 27.8403C20.3861 32.1637 23.9034 35.681 28.2268 35.681C32.5502 35.681 36.0675 32.1637 36.0675 27.8403C36.0675 26.589 35.7713 25.4061 35.2477 24.3556H40.4234V37.4234C40.4234 38.8645 39.251 40.0369 37.8098 40.0369ZM34.3251 27.8403C34.3251 31.2029 31.5893 33.9386 28.2268 33.9386C24.8642 33.9386 22.1285 31.2029 22.1285 27.8403C22.1285 24.4778 24.8642 21.742 28.2268 21.742C31.5893 21.742 34.3251 24.4778 34.3251 27.8403ZM40.4234 18.2573V22.6132H34.0646C32.628 21.0105 30.5436 19.9997 28.2268 19.9997C25.91 19.9997 23.8256 21.0105 22.389 22.6132H16.0302V18.2573C16.0302 17.1216 16.7586 16.1532 17.7726 15.7936V20.8708C17.7726 21.352 18.1627 21.742 18.6438 21.742C19.1249 21.742 19.5149 21.352 19.5149 20.8708V15.6437H20.3861V20.8708C20.3861 21.352 20.7762 21.742 21.2573 21.742C21.7384 21.742 22.1285 21.352 22.1285 20.8708V15.6437H37.8098C39.251 15.6437 40.4234 16.8161 40.4234 18.2573Z" fill="white"/>
<path d="M28.2269 23.4844C27.7458 23.4844 27.3557 23.8744 27.3557 24.3556C27.3557 24.8367 27.7458 25.2267 28.2269 25.2267C29.6681 25.2267 30.8405 26.3991 30.8405 27.8403C30.8405 28.3214 31.2305 28.7115 31.7116 28.7115C32.1927 28.7115 32.5828 28.3214 32.5828 27.8403C32.5828 25.4384 30.6288 23.4844 28.2269 23.4844Z" fill="white"/>
<path d="M34.3252 17.3861V20.8708C34.3252 21.3519 34.7153 21.742 35.1964 21.742H38.6811C39.1622 21.742 39.5523 21.3519 39.5523 20.8708V17.3861C39.5523 16.905 39.1622 16.5149 38.6811 16.5149H35.1964C34.7153 16.5149 34.3252 16.905 34.3252 17.3861ZM36.0676 18.2573H37.8099V19.9996H36.0676V18.2573Z" fill="white"/>
</svg>
