<svg width="56" height="56" viewBox="0 0 56 56" fill="none" xmlns="http://www.w3.org/2000/svg">
<path d="M24.2726 42.2525H29.8799C30.361 42.2525 30.7511 41.8624 30.7511 41.3813V28.7593H33.6642C34.1108 28.7593 34.4851 28.4216 34.5308 27.9774L35.0219 23.2107C35.0472 22.9655 34.9674 22.7209 34.8021 22.5378C34.6369 22.3547 34.4019 22.2502 34.1553 22.2502H30.7511V20.3195C30.7511 19.9207 30.8773 19.8908 31.0699 19.8908H34.0844C34.5655 19.8908 34.9556 19.5008 34.9556 19.0196V14.3915C34.9556 13.9117 34.5677 13.5223 34.0879 13.5203L29.9305 13.5034C27.0173 13.5034 25.4625 14.7851 24.6713 15.8603C23.5664 17.3617 23.4014 19.1208 23.4014 20.0358V22.2501H21.6058C21.1247 22.2501 20.7346 22.6402 20.7346 23.1213V27.888C20.7346 28.3691 21.1247 28.7592 21.6058 28.7592H23.4014V41.3813C23.4014 41.8624 23.7914 42.2525 24.2726 42.2525ZM22.4769 27.0169V23.9926H24.2725C24.7536 23.9926 25.1437 23.6025 25.1437 23.1214V20.0359C25.1437 19.4713 25.2344 18.0348 26.0744 16.8931C26.8788 15.8001 28.1762 15.2459 29.9268 15.2459L33.213 15.2592V18.1486H31.0697C30.0438 18.1486 29.0085 18.8198 29.0085 20.3196V23.1215C29.0085 23.6026 29.3986 23.9927 29.8797 23.9927H33.1896L32.878 27.017H29.8797C29.3986 27.017 29.0085 27.4071 29.0085 27.8882V40.5101H25.1436V27.8881C25.1436 27.407 24.7535 27.0169 24.2724 27.0169H22.4769Z" fill="white"/>
<path d="M47.5909 8.16561C42.3254 2.89996 35.3245 0 27.8779 0C20.4319 0 13.4313 2.89996 8.16561 8.16561C2.89996 13.4313 0 20.4319 0 27.8779C0 35.3252 2.89996 42.3263 8.16561 47.5915C13.4309 52.8564 20.4316 55.7558 27.8779 55.7558C35.3249 55.7558 42.3257 52.8564 47.5907 47.5915C52.8561 42.3264 55.7558 35.3253 55.7558 27.8779C55.7558 20.4317 52.8561 13.4311 47.5909 8.16561ZM46.3588 46.3594C41.4228 51.2952 34.8595 54.0134 27.8779 54.0134C20.8969 54.0134 14.3338 51.2952 9.39758 46.3594C4.46101 41.4233 1.74237 34.8597 1.74237 27.8779C1.74237 20.8973 4.46101 14.3343 9.39758 9.39769C14.3343 4.46101 20.8973 1.74237 27.8779 1.74237C34.8591 1.74237 41.4224 4.46101 46.3588 9.39758C51.295 14.334 54.0134 20.8971 54.0134 27.8779C54.0134 34.8599 51.295 41.4234 46.3588 46.3594Z" fill="white"/>
<path d="M46.8303 12.5199C46.5272 12.1462 45.9786 12.089 45.6049 12.3923C45.2313 12.6955 45.1741 13.2441 45.4773 13.6176C48.7347 17.6327 50.5287 22.6971 50.5287 27.8779C50.5287 33.9291 48.1727 39.6175 43.8948 43.8953C39.6168 48.1729 33.9286 50.5287 27.8779 50.5287C22.2958 50.5287 16.9331 48.4807 12.7778 44.7619C12.4193 44.4411 11.8685 44.4716 11.5477 44.8301C11.2269 45.1886 11.2574 45.7394 11.6159 46.0602C16.0911 50.0654 21.8664 52.2711 27.8779 52.2711C34.3941 52.2711 40.5198 49.7341 45.1267 45.1273C49.7339 40.5203 52.2711 34.3944 52.2711 27.8779C52.2711 22.2986 50.3388 16.8445 46.8303 12.5199Z" fill="white"/>
<path d="M5.22699 27.8779C5.22699 15.3883 15.3882 5.22711 27.8778 5.22711C33.4599 5.22711 38.8225 7.27526 42.9778 10.9942C43.3364 11.3153 43.8872 11.2846 44.2079 10.9262C44.5288 10.5677 44.4984 10.0169 44.1399 9.69607C39.6646 5.69058 33.8893 3.48474 27.8778 3.48474C21.3625 3.48474 15.237 6.02217 10.6295 10.6297C6.02205 15.237 3.48462 21.3626 3.48462 27.8779C3.48462 33.4578 5.41691 38.9123 8.92549 43.2367C9.09766 43.4489 9.349 43.559 9.60251 43.559C9.79537 43.559 9.98943 43.4953 10.1509 43.3643C10.5246 43.0611 10.5817 42.5125 10.2786 42.1389C7.02098 38.1239 5.22699 33.0593 5.22699 27.8779Z" fill="white"/>
</svg>
