<svg width="56" height="56" viewBox="0 0 56 56" fill="none" xmlns="http://www.w3.org/2000/svg">
<path d="M47.7652 8.16561C42.4997 2.89996 35.4988 0 28.0522 0C20.6062 0 13.6056 2.89996 8.33993 8.16561C3.07427 13.4313 0.174316 20.4319 0.174316 27.8779C0.174316 35.3252 3.07427 42.3263 8.33993 47.5915C13.6053 52.8564 20.6059 55.7558 28.0522 55.7558C35.4992 55.7558 42.5001 52.8564 47.7651 47.5915C53.0304 42.3264 55.9301 35.3253 55.9301 27.8779C55.9301 20.4318 53.0304 13.4311 47.7652 8.16561ZM46.5331 46.3594C41.5971 51.2952 35.0338 54.0134 28.0522 54.0134C21.0712 54.0134 14.5081 51.2952 9.57189 46.3594C4.63533 41.4233 1.91669 34.8597 1.91669 27.8779C1.91669 20.8973 4.63533 14.3343 9.57189 9.39758C14.5086 4.46101 21.0716 1.74237 28.0522 1.74237C35.0335 1.74237 41.5967 4.46101 46.5331 9.39758C51.4693 14.334 54.1878 20.8971 54.1878 27.8779C54.1878 34.8599 51.4693 41.4234 46.5331 46.3594Z" fill="white"/>
<path d="M47.0044 12.5199C46.7013 12.1462 46.1527 12.089 45.779 12.3923C45.4053 12.6955 45.3482 13.2441 45.6513 13.6176C48.9088 17.6327 50.7028 22.6972 50.7028 27.8779C50.7028 33.9291 48.3468 39.6175 44.0688 43.8952C39.7909 48.1729 34.1027 50.5287 28.052 50.5287C22.4699 50.5287 17.1072 48.4807 12.9519 44.7619C12.5934 44.4411 12.0426 44.4717 11.7218 44.8301C11.4009 45.1886 11.4314 45.7394 11.7899 46.0602C16.2652 50.0654 22.0405 52.2711 28.052 52.2711C34.5681 52.2711 40.6939 49.7341 45.3008 45.1273C49.908 40.5204 52.4452 34.3944 52.4452 27.8779C52.4452 22.2988 50.5129 16.8445 47.0044 12.5199Z" fill="white"/>
<path d="M5.4013 27.8779C5.4013 15.3883 15.5625 5.22711 28.0521 5.22711C33.6342 5.22711 38.9968 7.27526 43.1521 10.9942C43.5107 11.3153 44.0615 11.2847 44.3822 10.9262C44.7032 10.5677 44.6727 10.0169 44.3142 9.69607C39.8389 5.69058 34.0636 3.48474 28.0521 3.48474C21.5368 3.48474 15.4112 6.02217 10.8038 10.6297C6.19637 15.2371 3.65894 21.3626 3.65894 27.8779C3.65894 33.4577 5.59122 38.9123 9.09981 43.2367C9.27198 43.4489 9.52331 43.559 9.77683 43.559C9.96969 43.559 10.1637 43.4953 10.3252 43.3643C10.6989 43.0611 10.756 42.5125 10.4529 42.1389C7.19529 38.1239 5.4013 33.0593 5.4013 27.8779Z" fill="white"/>
<path d="M21.5324 39.7558C21.8743 40.6015 22.4778 41.399 23.3308 42.1297C24.1658 42.8359 25.1734 43.3854 26.3278 43.7637C27.4401 44.1249 28.3291 44.3207 29.8387 44.3207C31.103 44.3207 32.3056 44.1919 33.4168 43.9371C34.5143 43.6801 35.7458 43.2352 37.0773 42.615C37.3843 42.472 37.5806 42.164 37.5806 41.8253V37.1227C37.5806 36.8029 37.4055 36.509 37.1245 36.3567C36.8434 36.2043 36.5014 36.2183 36.2337 36.3928C34.881 37.2746 33.5122 37.7217 32.165 37.7217C31.4635 37.7217 30.8613 37.568 30.324 37.2519C30.3238 37.2518 30.3234 37.2516 30.3232 37.2515C29.9868 37.054 29.6627 36.6983 29.5527 36.4066C29.4429 36.1146 29.4442 35.1857 29.4459 34.0097L29.4464 26.7211H35.53C36.0111 26.7211 36.4012 26.3311 36.4012 25.85V20.5272C36.4012 20.0461 36.0111 19.6561 35.53 19.6561H29.4464V13.6308C29.4464 13.1497 29.0563 12.7596 28.5752 12.7596H24.2979C23.8583 12.7596 23.4876 13.0871 23.4334 13.5233C23.2555 14.9534 22.9313 16.1343 22.4692 17.0342C22.0089 17.9338 21.4153 18.6828 20.6537 19.3245C20.051 19.8334 18.9807 20.3423 17.5587 20.796C17.1975 20.9112 16.9524 21.2468 16.9524 21.626V25.85C16.9524 26.3311 17.3425 26.7211 17.8236 26.7211H21.0372V36.3072C21.0371 37.7974 21.1989 38.9248 21.5324 39.7558ZM18.6947 24.9787V22.2525C20.0544 21.7727 21.0896 21.2367 21.7771 20.6563C22.7055 19.8741 23.4603 18.9224 24.0197 17.8291C24.4861 16.9209 24.8319 15.8043 25.051 14.5021H27.7039V20.5272C27.7039 21.0083 28.094 21.3984 28.5751 21.3984H34.6587V24.9787H28.5751C28.094 24.9787 27.7039 25.3687 27.7039 25.8498V33.4954L27.7035 34.007C27.7012 35.5691 27.7 36.4297 27.9219 37.0202C28.1734 37.6871 28.7555 38.3512 29.441 38.7537C30.2421 39.2249 31.1586 39.4639 32.1649 39.4639C33.3962 39.4639 34.6268 39.1761 35.8382 38.6068V41.2632C34.8106 41.7143 33.8648 42.0423 33.0232 42.2394C32.0435 42.4641 30.972 42.5781 29.8385 42.5781C28.5536 42.5781 27.8292 42.4192 26.8679 42.107C25.9302 41.7997 25.1186 41.3597 24.4599 40.8026C23.8254 40.2589 23.3839 39.687 23.1485 39.1046C22.9035 38.4943 22.7793 37.5531 22.7793 36.3069V25.8496C22.7793 25.3685 22.3892 24.9784 21.9081 24.9784H18.6947V24.9787Z" fill="white"/>
</svg>
